<?xml version="1.0" encoding="utf-8"?>
<!-- Generator: Adobe Illustrator 16.0.0, SVG Export Plug-In . SVG Version: 6.00 Build 0)  -->
<!DOCTYPE svg PUBLIC "-//W3C//DTD SVG 1.0//EN" "http://www.w3.org/TR/2001/REC-SVG-20010904/DTD/svg10.dtd">
<svg version="1.0" id="Layer_1" xmlns="http://www.w3.org/2000/svg" xmlns:xlink="http://www.w3.org/1999/xlink" x="0px" y="0px"
	 width="512px" height="512px" viewBox="0 0 512 512" enable-background="new 0 0 512 512" xml:space="preserve">
<path fill="#fff" stroke="#000000" stroke-width="5" stroke-miterlimit="10" d="M512,346.5
	c0-63.535-36.449-120.238-91.039-147.82C419.266,320.5,320.5,419.266,198.68,420.961C226.262,475.551,282.965,512,346.5,512
	c29.789,0,58.758-7.934,84.211-23.008l80.566,22.285l-22.285-80.566C504.066,405.258,512,376.289,512,346.5z"/>
<path fill="#fff" stroke="#000000" stroke-width="5" stroke-miterlimit="10" d="M391,195.5C391,87.699,303.301,0,195.5,0
	S0,87.699,0,195.5c0,35.133,9.352,69.34,27.109,99.371L0.719,390.277l95.41-26.387C126.16,381.648,160.367,391,195.5,391
	C303.301,391,391,303.301,391,195.5z M165.5,150h-30c0-33.086,26.914-60,60-60s60,26.914,60,60c0,16.793-7.109,32.934-19.512,44.277
	L210.5,217.605V241h-30v-36.605l35.234-32.25c6.297-5.762,9.766-13.625,9.766-22.145c0-16.543-13.457-30-30-30
	S165.5,133.457,165.5,150z M180.5,271h30v30h-30V271z"/>
</svg>
