<?xml version="1.0" encoding="utf-8"?>
<!-- Generator: Adobe Illustrator 16.0.0, SVG Export Plug-In . SVG Version: 6.00 Build 0)  -->
<!DOCTYPE svg PUBLIC "-//W3C//DTD SVG 1.0//EN" "http://www.w3.org/TR/2001/REC-SVG-20010904/DTD/svg10.dtd">
<svg version="1.0" id="Isolation_Mode" xmlns="http://www.w3.org/2000/svg" xmlns:xlink="http://www.w3.org/1999/xlink" x="0px"
	 y="0px" width="50px" height="50px" viewBox="0 0 50 50" enable-background="new 0 0 50 50" xml:space="preserve">
<g>
	<g>
		<circle fill="#FFFFFF" stroke="#000000" stroke-miterlimit="10" cx="17.71" cy="43.402" r="6.06"/>
		<path fill="#FFFFFF" stroke="#000000" stroke-miterlimit="10" d="M37.126,37.283L37.126,37.283
			c-3.363-0.332-6.358,2.127-6.688,5.49c-0.332,3.363,2.127,6.357,5.49,6.688c0.398,0.039,0.8,0.039,1.198,0
			c3.363-0.331,5.821-3.325,5.49-6.688C42.33,39.867,40.031,37.568,37.126,37.283z"/>
		<path fill="#fff" stroke="#000000" stroke-miterlimit="10" d="M49.6,14.219c-0.302-0.451-0.812-0.717-1.354-0.706h-6.707
			v-0.118c0-7.116-5.769-12.886-12.885-12.886S15.769,6.277,15.768,13.393c0,0,0,0.001,0,0.001v0.118h-5.001L9.061,5.746
			c-0.19-0.79-0.894-1.349-1.707-1.353H0v3.53h5.942l5.472,25.124c0.145,0.826,0.868,1.424,1.707,1.412h30.772
			c0.813-0.006,1.516-0.564,1.705-1.354l4.354-17.416C50.08,15.171,49.948,14.623,49.6,14.219z M28.653,22.75
			c-5.167,0-9.355-4.188-9.355-9.355s4.188-9.355,9.355-9.355c5.167,0,9.354,4.188,9.354,9.355
			C37.977,18.548,33.807,22.718,28.653,22.75z"/>
		<path fill="#FFFFFF" stroke="#000000" stroke-miterlimit="10" d="M27.241,13.571l-3.236-3.295l-2.53,2.471l4.472,4.531
			c0.326,0.333,0.77,0.522,1.235,0.529c0.46,0.022,0.907-0.148,1.235-0.471l7.414-7.001l-2.413-2.589L27.241,13.571z"/>
	</g>
</g>
</svg>
