<?xml version="1.0" encoding="utf-8"?>
<!-- Generator: Adobe Illustrator 16.0.0, SVG Export Plug-In . SVG Version: 6.00 Build 0)  -->
<!DOCTYPE svg PUBLIC "-//W3C//DTD SVG 1.0//EN" "http://www.w3.org/TR/2001/REC-SVG-20010904/DTD/svg10.dtd">
<svg version="1.0" id="Layer_1" xmlns="http://www.w3.org/2000/svg" xmlns:xlink="http://www.w3.org/1999/xlink" x="0px" y="0px"
	 width="405.641px" height="512px" viewBox="0 0 405.641 512" enable-background="new 0 0 405.641 512" xml:space="preserve">
<g id="surface1">
	<path fill="#39B039" d="M267.008,12.738l125.773,132.207h-83.727c-23.25,0-42.047-18.801-42.047-42.051V12.738z"/>
	<path d="M275.91,3.957C273.563,1.484,270.348,0,267.008,0H67.277C30.422,0,0,30.301,0,67.152v377.695
		C0,481.699,30.422,512,67.277,512h271.09c36.852,0,67.273-30.301,67.273-67.152V144.82c0-3.215-1.484-6.309-3.586-8.656
		L275.91,3.957z M279.5,43.656l84.465,88.672h-54.91c-16.324,0-29.555-13.109-29.555-29.559V43.656z M338.367,487.266H67.277
		c-23.125,0-42.543-19.168-42.543-42.418V67.152c0-23.125,19.293-42.418,42.543-42.418h187.488v78.035
		c0,30.055,24.238,54.293,54.289,54.293h71.855v287.785C380.91,468.098,361.617,487.266,338.367,487.266z"/>
	<path fill="#fff" d="M392.781,144.82v300.027c0,30.051-24.363,54.414-54.414,54.414H67.277
		c-30.051,0-54.414-24.363-54.414-54.414V67.152c0-30.051,24.363-54.414,54.414-54.414h199.73v90.156
		c0,23.25,18.797,42.047,42.047,42.047h83.727V144.82z"/>
	<path fill="#39B039" d="M304.602,401.934H101.039c-6.801,0-12.367,5.563-12.367,12.367c0,6.801,5.566,12.367,12.367,12.367h203.688
		c6.801,0,12.367-5.566,12.367-12.367C317.094,407.496,311.527,401.934,304.602,401.934z"/>
	<path fill="#39B039" d="M193.793,357.535c2.352,2.473,5.566,3.957,9.027,3.957c3.465,0,6.68-1.484,9.027-3.957l72.348-77.789
		c4.703-4.949,4.332-12.863-0.617-17.438c-4.945-4.699-12.863-4.328-17.438,0.617l-50.953,54.789V182.664
		c0-6.801-5.563-12.367-12.367-12.367c-6.801,0-12.367,5.563-12.367,12.367v135.047L139.5,262.926
		c-4.699-4.945-12.488-5.316-17.438-0.617c-4.945,4.699-5.316,12.488-0.617,17.434L193.793,357.535z"/>
</g>
</svg>
